<?xml version="1.0" encoding="utf-8"?>
<!-- Generator: Adobe Illustrator 16.0.0, SVG Export Plug-In . SVG Version: 6.00 Build 0)  -->
<!DOCTYPE svg PUBLIC "-//W3C//DTD SVG 1.1//EN" "http://www.w3.org/Graphics/SVG/1.1/DTD/svg11.dtd">
<svg version="1.1" id="Vrstva_1" xmlns="http://www.w3.org/2000/svg" xmlns:xlink="http://www.w3.org/1999/xlink" x="0px" y="0px"
	 width="283.465px" height="200px" viewBox="0 0 283.465 200"
	 xml:space="preserve">
<polygon points="107.622,51.472 107.622,38.91 110.747,38.91 110.747,36.914 107.622,36.914 107.622,33.5 105.627,33.5 
	105.627,36.914 102.502,36.914 102.502,38.91 105.627,38.91 105.627,51.594 95.409,81.725 95.409,181.944 109.218,181.944 
	109.218,111.771 118.443,100.092 118.443,81.603 "/>
<polygon points="149.93,72.711 118.444,109.269 118.444,109.249 114.6,113.711 114.645,181.944 120.066,181.944 120.066,144.792 
	127.661,135.971 127.661,117.017 155.154,85.157 182.629,117.017 182.629,181.944 188.056,181.944 188.056,117.017 "/>
<polygon points="165.336,156.022 143.456,155.966 125.489,167.709 125.489,182.081 165.336,182.081 "/>
<g>
	<path d="M154.44,116.984l-10.896,12.659v22.698h5.44v-11.548c0-3.017,2.439-5.463,5.456-5.463s5.456,2.446,5.456,5.463v11.548
		h5.439v-22.698L154.44,116.984z"/>
</g>
</svg>
